<svg width="144" height="95" viewBox="0 0 144 95" fill="none" xmlns="http://www.w3.org/2000/svg">
<g id="Group 440">
<path id="Rectangle 57" d="M16.2808 23.8219C16.2808 12.608 25.3714 3.51733 36.5853 3.51733H115.219C126.12 3.51733 132.013 16.2928 124.936 24.5847C124.474 25.1264 123.967 25.6285 123.421 26.0858L122.74 26.6561C119.134 29.676 114.701 31.538 110.02 31.9987L98.6962 33.1131H78.873C69.9027 33.1131 61.1674 35.9807 53.9424 41.2972C51.8573 42.8315 49.9183 44.555 48.15 46.4458L42.729 52.2426C42.1332 52.8797 41.5961 53.5693 41.1243 54.303C33.8405 65.6296 16.2808 60.4708 16.2808 47.0043V23.8219Z" stroke="white"/>
<path id="Rectangle 58" d="M127.719 71.5424C127.719 82.7563 118.629 91.8469 107.415 91.8469H28.7808C17.8796 91.8469 11.9872 79.0715 19.0639 70.7795C19.5262 70.2378 20.033 69.7357 20.579 69.2785L21.26 68.7081C24.8662 65.6882 29.2993 63.8263 33.9803 63.3656L45.3038 62.2512H65.127C74.0973 62.2512 82.8326 59.3836 90.0576 54.0671C92.1427 52.5328 94.0817 50.8092 95.85 48.9184L101.271 43.1216C101.867 42.4846 102.404 41.795 102.876 41.0613C110.16 29.7347 127.719 34.8935 127.719 48.36V71.5424Z" stroke="white"/>
</g>
</svg>
